<svg class="hamburger" xmlns="http://www.w3.org/2000/svg" viewBox="0 0 22.5 22.5"><title>Menu</title><path class="bar" d="m 20.945,8.75 c 0,0.345 -0.5,0.625 -1.117,0.625 H 3.141 C 2.524,9.375 2.023,9.095 2.023,8.75 l 0,0 c 0,-0.345 0.5,-0.625 1.118,-0.625 h 16.688 c 0.616,0 1.116,0.28 1.116,0.625 l 0,0 z" /><path class="bar" d="m 20.923,15 c 0,0.3445 -0.501,0.625 -1.118,0.625 H 3.118 C 2.5,15.625 2,15.3445 2,15 l 0,0 c 0,-0.3445 0.5,-0.625 1.118,-0.625 h 16.687 c 0.617,0 1.118,0.2805 1.118,0.625 l 0,0 z" /><path class="bar" d="m 20.969,21.25 c 0,0.3445 -0.5,0.625 -1.117,0.625 H 3.164 c -0.617,0 -1.118,-0.2805 -1.118,-0.625 l 0,0 c 0,-0.3445 0.5,-0.625 1.118,-0.625 h 16.688 c 0.617,0 1.117,0.2805 1.117,0.625 l 0,0 z" /></svg>
