<?xml version="1.0" encoding="UTF-8" standalone="no"?>
<!-- Created with Inkscape (http://www.inkscape.org/) -->

<svg
   xmlns:dc="http://purl.org/dc/elements/1.1/"
   xmlns:cc="http://creativecommons.org/ns#"
   xmlns:rdf="http://www.w3.org/1999/02/22-rdf-syntax-ns#"
   xmlns:svg="http://www.w3.org/2000/svg"
   xmlns="http://www.w3.org/2000/svg"
   version="1.1"
   width="640"
   height="640"
   id="svg2">
  <defs
     id="defs4" />
  <metadata
     id="metadata7">
    <rdf:RDF>
      <cc:Work
         rdf:about="">
        <dc:format>image/svg+xml</dc:format>
        <dc:type
           rdf:resource="http://purl.org/dc/dcmitype/StillImage" />
        <dc:title></dc:title>
      </cc:Work>
    </rdf:RDF>
  </metadata>
  <g
     transform="translate(-59.999998,-192.36219)"
     id="layer1">
    <path
       d="m 740,552.36218 a 280,280 0 1 1 -560,0 280,280 0 1 1 560,0 z"
       transform="matrix(1.1428571,0,0,1.1428571,-145.71428,-118.90886)"
       id="path3976"
       style="fill:#557799;fill-opacity:1;stroke:#000000;stroke-width:0;stroke-miterlimit:4;stroke-opacity:1;stroke-dasharray:none" />
    <g
       transform="matrix(13.207692,0,0,16.792768,241.05407,279.51144)"
       id="g4539">
      <g
         id="g4503" />
      <g
         id="g4505" />
      <g
         id="g4507" />
      <g
         id="g4509" />
      <g
         id="g4511" />
      <g
         id="g4513" />
      <g
         id="g4515" />
      <g
         id="g4517" />
      <g
         id="g4519" />
      <g
         id="g4521" />
      <g
         id="g4523" />
      <g
         id="g4525" />
      <g
         id="g4527" />
      <g
         id="g4529" />
      <g
         id="g4531" />
    </g>
    <g
       transform="matrix(8.1060977,0,0,6.9791205,241.84962,289.41354)"
       id="g4795">
      <path
         d="m 35.198,13.727 v 0.795 l -6.219,2.757 V 15.097 C 30.493,13.493 31.422,11.331 31.422,8.956 31.422,4.017 27.405,0 22.468,0 19.774,0 17.355,1.196 15.712,3.084 14.068,1.196 11.649,0 8.955,0 4.017,0 0,4.017 0,8.955 c 0,2.137 0.753,4.1 2.007,5.641 H 0 v 2.527 h 2.983 v 12.069 h 25.996 v -5.721 l 6.219,2.757 v 0.795 h 1.583 V 13.727 H 35.198 z M 8.955,13.019 C 6.714,13.019 4.89,11.196 4.89,8.954 4.89,6.712 6.714,4.89 8.955,4.89 c 2.241,0 4.064,1.823 4.064,4.065 0,2.242 -1.823,4.064 -4.064,4.064 z m 13.513,0 c -2.241,0 -4.065,-1.823 -4.065,-4.065 0,-2.242 1.823,-4.065 4.065,-4.065 2.241,0 4.065,1.823 4.065,4.065 0,2.242 -1.824,4.065 -4.065,4.065 z"
         id="path4797"
         style="fill:#ffffff;fill-opacity:1" />
      <polygon
         points="10.344,34.212 14.049,34.212 14.581,58.896 14.404,58.896 14.404,60.602 17.019,60.602 17.019,58.896 16.842,58.896 17.374,34.212 21.079,34.212 26.324,61.626 26.304,61.626 26.304,63.931 30.442,63.931 30.442,61.626 28.795,61.626 27.501,53.787 27.501,53.787 23.926,30.886 7.497,30.886 4.509,50.027 2.595,61.626 0.981,61.626 0.981,63.931 5.119,63.931 5.119,61.626 5.066,61.626 "
         id="polygon4799"
         style="fill:#ffffff;fill-opacity:1" />
    </g>
    <g
       transform="matrix(8.1060977,0,0,6.9791205,241.84962,289.41354)"
       id="g4801" />
    <g
       transform="matrix(8.1060977,0,0,6.9791205,241.84962,289.41354)"
       id="g4803" />
    <g
       transform="matrix(8.1060977,0,0,6.9791205,241.84962,289.41354)"
       id="g4805" />
    <g
       transform="matrix(8.1060977,0,0,6.9791205,241.84962,289.41354)"
       id="g4807" />
    <g
       transform="matrix(8.1060977,0,0,6.9791205,241.84962,289.41354)"
       id="g4809" />
    <g
       transform="matrix(8.1060977,0,0,6.9791205,241.84962,289.41354)"
       id="g4811" />
    <g
       transform="matrix(8.1060977,0,0,6.9791205,241.84962,289.41354)"
       id="g4813" />
    <g
       transform="matrix(8.1060977,0,0,6.9791205,241.84962,289.41354)"
       id="g4815" />
    <g
       transform="matrix(8.1060977,0,0,6.9791205,241.84962,289.41354)"
       id="g4817" />
    <g
       transform="matrix(8.1060977,0,0,6.9791205,241.84962,289.41354)"
       id="g4819" />
    <g
       transform="matrix(8.1060977,0,0,6.9791205,241.84962,289.41354)"
       id="g4821" />
    <g
       transform="matrix(8.1060977,0,0,6.9791205,241.84962,289.41354)"
       id="g4823" />
    <g
       transform="matrix(8.1060977,0,0,6.9791205,241.84962,289.41354)"
       id="g4825" />
    <g
       transform="matrix(8.1060977,0,0,6.9791205,241.84962,289.41354)"
       id="g4827" />
    <g
       transform="matrix(8.1060977,0,0,6.9791205,241.84962,289.41354)"
       id="g4829" />
  </g>
</svg>
