<?xml version="1.0" encoding="UTF-8" standalone="no"?>
<!-- Created with Inkscape (http://www.inkscape.org/) -->

<svg
   xmlns:dc="http://purl.org/dc/elements/1.1/"
   xmlns:cc="http://creativecommons.org/ns#"
   xmlns:rdf="http://www.w3.org/1999/02/22-rdf-syntax-ns#"
   xmlns:svg="http://www.w3.org/2000/svg"
   xmlns="http://www.w3.org/2000/svg"
   xmlns:sodipodi="http://sodipodi.sourceforge.net/DTD/sodipodi-0.dtd"
   xmlns:inkscape="http://www.inkscape.org/namespaces/inkscape"
   width="203.28"
   height="34.040001"
   id="svg2"
   version="1.1"
   inkscape:version="0.48.5 r10040"
   sodipodi:docname="New document 1">
  <defs
     id="defs4" />
  <sodipodi:namedview
     id="base"
     pagecolor="#ffffff"
     bordercolor="#666666"
     borderopacity="1.0"
     inkscape:pageopacity="0.0"
     inkscape:pageshadow="2"
     inkscape:zoom="1.5004828"
     inkscape:cx="222.80175"
     inkscape:cy="-9.8110753"
     inkscape:document-units="px"
     inkscape:current-layer="layer1"
     showgrid="false"
     fit-margin-top="0"
     fit-margin-left="0"
     fit-margin-right="0"
     fit-margin-bottom="0"
     inkscape:window-width="1607"
     inkscape:window-height="783"
     inkscape:window-x="4"
     inkscape:window-y="0"
     inkscape:window-maximized="0" />
  <metadata
     id="metadata7">
    <rdf:RDF>
      <cc:Work
         rdf:about="">
        <dc:format>image/svg+xml</dc:format>
        <dc:type
           rdf:resource="http://purl.org/dc/dcmitype/StillImage" />
        <dc:title></dc:title>
      </cc:Work>
    </rdf:RDF>
  </metadata>
  <g
     inkscape:label="Layer 1"
     inkscape:groupmode="layer"
     id="layer1"
     transform="translate(-152.26258,-488.42191)">
    <g
       style="font-size:40px;font-style:normal;font-weight:normal;line-height:125%;letter-spacing:0px;word-spacing:0px;fill:#000000;fill-opacity:1;stroke:none;font-family:Sans"
       id="text2985">
      <path
         d="m 152.26258,521.02191 0,-31.16 6.64,0 0,2.52 -4.08,0 0,18.92 3.8,0 0,1.92 -3.8,0 0,7.8 -2.56,0"
         style="font-variant:normal;font-stretch:normal;text-align:start;line-height:125%;writing-mode:lr-tb;text-anchor:start;font-family:Breamcatcher;-inkscape-font-specification:Breamcatcher"
         id="path2990"
         inkscape:connector-curvature="0" />
      <path
         d="m 163.35633,521.02191 0,0 m 2.52,0 -2.52,0 0,-31.4 c 1.78666,0.0534 3.29333,0.40003 4.52,1.04 1.22666,0.64003 2.21332,1.49336 2.96,2.56 0.74665,1.04003 1.27999,2.25336 1.6,3.64 0.34665,1.38669 0.51999,2.85336 0.52,4.4 -1e-5,2.56002 -0.45335,4.69335 -1.36,6.4 -0.90668,1.70668 -2.22668,3.20001 -3.96,4.48 0.69332,1.04001 1.41332,2.02668 2.16,2.96 0.77332,0.93334 1.53332,1.78667 2.28,2.56 0.77332,0.77334 1.51999,1.45334 2.24,2.04 0.71998,0.56 1.38665,1 2,1.32 l -4.2,0 c -0.45335,-0.26666 -0.94668,-0.66666 -1.48,-1.2 -0.50668,-0.53333 -1.04001,-1.14666 -1.6,-1.84 -0.53334,-0.71999 -1.08001,-1.47999 -1.64,-2.28 -0.53334,-0.82666 -1.02667,-1.65332 -1.48,-2.48 -10e-6,0.0267 -0.0133,0.04 -0.04,0.04 l 0,7.76 m 0,-10.08 c 1.54666,-1.11999 2.69332,-2.39999 3.44,-3.84 0.74666,-1.46665 1.11999,-3.27998 1.12,-5.44 -1e-5,-1.06664 -0.0933,-2.11998 -0.28,-3.16 -0.16001,-1.03997 -0.42668,-1.97331 -0.8,-2.8 -0.37334,-0.85331 -0.85334,-1.5733 -1.44,-2.16 -0.56001,-0.58664 -1.24001,-0.98664 -2.04,-1.2 l 0,18.6"
         style="font-variant:normal;font-stretch:normal;text-align:start;line-height:125%;writing-mode:lr-tb;text-anchor:start;font-family:Breamcatcher;-inkscape-font-specification:Breamcatcher"
         id="path2992"
         inkscape:connector-curvature="0" />
      <path
         d="m 177.34133,521.02191 0,0 m 8.28,-7.8 -4.44,0 -1.36,7.8 -2.48,0 6.24,-32.6 5.96,32.6 -2.56,0 -1.36,-7.8 m -4.12,-1.92 3.8,0 -1.8,-10.48 -0.16,0 -1.84,10.48"
         style="font-variant:normal;font-stretch:normal;text-align:start;line-height:125%;writing-mode:lr-tb;text-anchor:start;font-family:Breamcatcher;-inkscape-font-specification:Breamcatcher"
         id="path2994"
         inkscape:connector-curvature="0" />
      <path
         d="m 193.43445,521.02191 0,0 m 2.6,-18.64 -0.16,0 0,18.64 -2.44,0 0,-32.6 7.6,21.16 0.16,0 0,-19.72 2.36,0 0,32.6 -7.52,-20.08"
         style="font-variant:normal;font-stretch:normal;text-align:start;line-height:125%;writing-mode:lr-tb;text-anchor:start;font-family:Breamcatcher;-inkscape-font-specification:Breamcatcher"
         id="path2996"
         inkscape:connector-curvature="0" />
      <path
         d="m 209.05945,521.02191 0,0 m 8.76,0 c -0.42667,-0.26666 -0.90667,-0.66666 -1.44,-1.2 -0.50667,-0.53333 -1.04001,-1.14666 -1.6,-1.84 -0.53334,-0.69333 -1.08,-1.43999 -1.64,-2.24 -0.53334,-0.82666 -1.02667,-1.65332 -1.48,-2.48 l -0.08,0.2 0,7.56 -2.52,0 0,-31.16 2.52,0 0,16.92 0.16,0 6.28,-16.92 2.6,0 -8.04,21 c 0.42666,0.77334 1,1.66668 1.72,2.68 0.74666,0.98667 1.55999,1.97334 2.44,2.96 0.87999,0.98667 1.77332,1.89334 2.68,2.72 0.93332,0.8 1.79999,1.4 2.6,1.8 l -4.2,0"
         style="font-variant:normal;font-stretch:normal;text-align:start;line-height:125%;writing-mode:lr-tb;text-anchor:start;font-family:Breamcatcher;-inkscape-font-specification:Breamcatcher"
         id="path2998"
         inkscape:connector-curvature="0" />
      <path
         d="m 223.05195,500.18191 -0.44,-10.32 2.48,0 -0.44,10.32 -1.6,0"
         style="font-variant:normal;font-stretch:normal;text-align:start;line-height:125%;writing-mode:lr-tb;text-anchor:start;font-family:Breamcatcher;-inkscape-font-specification:Breamcatcher"
         id="path3000"
         inkscape:connector-curvature="0" />
      <path
         d="m 227.78508,521.02191 0,0 m 0.4,-2.76 c 0.18666,0.16 0.42666,0.32 0.72,0.48 0.32,0.13334 0.72,0.2 1.2,0.2 1.46666,0 2.53333,-0.46666 3.2,-1.4 0.69332,-0.93333 1.03999,-2.37333 1.04,-4.32 -1e-5,-0.77332 -0.10668,-1.51999 -0.32,-2.24 -0.21334,-0.74665 -0.49334,-1.46665 -0.84,-2.16 -0.53334,-1.01332 -1.12001,-1.98665 -1.76,-2.92 -0.64001,-0.93332 -1.24001,-1.86665 -1.8,-2.8 -0.53334,-0.90665 -0.97334,-1.86665 -1.32,-2.88 -0.34667,-1.03998 -0.52,-2.17331 -0.52,-3.4 0,-2.29331 0.49333,-4.0933 1.48,-5.4 0.98666,-1.3333 2.34666,-1.99997 4.08,-2 0.61332,3e-5 1.07999,0.08 1.4,0.24 0.34666,0.13337 0.61332,0.2667 0.8,0.4 l 0,2.56 c -0.13334,-0.18664 -0.37334,-0.34664 -0.72,-0.48 -0.34668,-0.1333 -0.72001,-0.19997 -1.12,-0.2 -1.09334,3e-5 -1.93334,0.41336 -2.52,1.24 -0.58667,0.80003 -0.88001,2.10669 -0.88,3.92 -1e-5,0.80002 0.11999,1.57336 0.36,2.32 0.23999,0.74669 0.54666,1.46669 0.92,2.16 0.45333,0.82669 0.95999,1.64002 1.52,2.44 0.58666,0.80002 1.14666,1.62668 1.68,2.48 0.61332,1.01335 1.11999,2.05335 1.52,3.12 0.42665,1.06668 0.63999,2.26668 0.64,3.6 -1e-5,2.61334 -0.56001,4.64 -1.68,6.08 -1.12001,1.41334 -2.70667,2.12 -4.76,2.12 -0.61334,0 -1.10667,-0.0667 -1.48,-0.2 -0.37334,-0.10667 -0.65334,-0.24 -0.84,-0.4 l 0,-2.56"
         style="font-variant:normal;font-stretch:normal;text-align:start;line-height:125%;writing-mode:lr-tb;text-anchor:start;font-family:Breamcatcher;-inkscape-font-specification:Breamcatcher"
         id="path3002"
         inkscape:connector-curvature="0" />
      <path
         d="m 260.0157,521.02191 0,-17.56 -0.16,0 -4.16,13 -4.08,-13 -0.16,0 0,17.56 -2.24,0 0,-32.6 6.4,20.68 0.16,0 6.48,-20.68 0,32.6 -2.24,0"
         style="font-variant:normal;font-stretch:normal;text-align:start;line-height:125%;writing-mode:lr-tb;text-anchor:start;font-family:Breamcatcher;-inkscape-font-specification:Breamcatcher"
         id="path3004"
         inkscape:connector-curvature="0" />
      <path
         d="m 266.84945,521.02191 0,0 m 10.96,-15.28 c -1e-5,2.82668 -0.13334,5.24001 -0.4,7.24 -0.24001,1.97334 -0.60001,3.60001 -1.08,4.88 -0.45334,1.25334 -1.02667,2.17334 -1.72,2.76 -0.66667,0.56 -1.42667,0.84 -2.28,0.84 -0.85334,0 -1.62667,-0.28 -2.32,-0.84 -0.66667,-0.58666 -1.24,-1.50666 -1.72,-2.76 -0.45333,-1.27999 -0.81333,-2.90666 -1.08,-4.88 -0.24,-1.99999 -0.36,-4.41332 -0.36,-7.24 0,-5.62664 0.48,-9.74664 1.44,-12.36 0.96,-2.6133 2.30666,-3.91997 4.04,-3.92 1.70666,3e-5 3.03999,1.3067 4,3.92 0.98666,2.61336 1.47999,6.73336 1.48,12.36 m -8.4,0 c 0,4.18668 0.24,7.44001 0.72,9.76 0.48,2.32 1.21333,3.48 2.2,3.48 0.98666,0 1.71999,-1.16 2.2,-3.48 0.47999,-2.31999 0.71999,-5.57332 0.72,-9.76 -1e-5,-2.07998 -0.0667,-3.95998 -0.2,-5.64 -0.10667,-1.70664 -0.28001,-3.15997 -0.52,-4.36 -0.24001,-1.19997 -0.54667,-2.11997 -0.92,-2.76 -0.37334,-0.66664 -0.8,-0.99997 -1.28,-1 -0.48,3e-5 -0.90667,0.33336 -1.28,1 -0.37334,0.64003 -0.68,1.56003 -0.92,2.76 -0.24,1.20003 -0.42667,2.65336 -0.56,4.36 -0.10667,1.68002 -0.16,3.56002 -0.16,5.64"
         style="font-variant:normal;font-stretch:normal;text-align:start;line-height:125%;writing-mode:lr-tb;text-anchor:start;font-family:Breamcatcher;-inkscape-font-specification:Breamcatcher"
         id="path3006"
         inkscape:connector-curvature="0" />
      <path
         d="m 279.68508,521.02191 0,0 m 6.04,-11.24 0.16,0 3.48,-19.92 2.56,0 -6.24,32.6 -6,-32.6 2.68,0 3.36,19.92"
         style="font-variant:normal;font-stretch:normal;text-align:start;line-height:125%;writing-mode:lr-tb;text-anchor:start;font-family:Breamcatcher;-inkscape-font-specification:Breamcatcher"
         id="path3008"
         inkscape:connector-curvature="0" />
      <path
         d="m 295.7782,521.02191 0,0 m 0,0 0,-31.16 2.56,0 0,31.16 -2.56,0"
         style="font-variant:normal;font-stretch:normal;text-align:start;line-height:125%;writing-mode:lr-tb;text-anchor:start;font-family:Breamcatcher;-inkscape-font-specification:Breamcatcher"
         id="path3010"
         inkscape:connector-curvature="0" />
      <path
         d="m 303.82508,521.02191 0,0 m 0,0 0,-31.16 6.44,0 0,2.52 -3.88,0 0,18.92 3.8,0 0,1.92 -3.8,0 0,5.4 4.24,0 0,2.4 -6.8,0"
         style="font-variant:normal;font-stretch:normal;text-align:start;line-height:125%;writing-mode:lr-tb;text-anchor:start;font-family:Breamcatcher;-inkscape-font-specification:Breamcatcher"
         id="path3012"
         inkscape:connector-curvature="0" />
      <path
         d="m 322.73133,521.02191 0,-31.16 2.56,0 0,28.76 4.4,0 0,2.4 -6.96,0"
         style="font-variant:normal;font-stretch:normal;text-align:start;line-height:125%;writing-mode:lr-tb;text-anchor:start;font-family:Breamcatcher;-inkscape-font-specification:Breamcatcher"
         id="path3014"
         inkscape:connector-curvature="0" />
      <path
         d="m 331.77133,521.02191 0,0 m 10.96,-15.28 c -1e-5,2.82668 -0.13335,5.24001 -0.4,7.24 -0.24001,1.97334 -0.60001,3.60001 -1.08,4.88 -0.45335,1.25334 -1.02668,2.17334 -1.72,2.76 -0.66668,0.56 -1.42668,0.84 -2.28,0.84 -0.85334,0 -1.62667,-0.28 -2.32,-0.84 -0.66667,-0.58666 -1.24,-1.50666 -1.72,-2.76 -0.45334,-1.27999 -0.81334,-2.90666 -1.08,-4.88 -0.24,-1.99999 -0.36,-4.41332 -0.36,-7.24 0,-5.62664 0.48,-9.74664 1.44,-12.36 0.95999,-2.6133 2.30666,-3.91997 4.04,-3.92 1.70666,3e-5 3.03999,1.3067 4,3.92 0.98665,2.61336 1.47999,6.73336 1.48,12.36 m -8.4,0 c -10e-6,4.18668 0.23999,7.44001 0.72,9.76 0.47999,2.32 1.21333,3.48 2.2,3.48 0.98666,0 1.71999,-1.16 2.2,-3.48 0.47999,-2.31999 0.71999,-5.57332 0.72,-9.76 -1e-5,-2.07998 -0.0667,-3.95998 -0.2,-5.64 -0.10668,-1.70664 -0.28001,-3.15997 -0.52,-4.36 -0.24001,-1.19997 -0.54668,-2.11997 -0.92,-2.76 -0.37334,-0.66664 -0.80001,-0.99997 -1.28,-1 -0.48001,3e-5 -0.90667,0.33336 -1.28,1 -0.37334,0.64003 -0.68001,1.56003 -0.92,2.76 -0.24001,1.20003 -0.42667,2.65336 -0.56,4.36 -0.10667,1.68002 -0.16001,3.56002 -0.16,5.64"
         style="font-variant:normal;font-stretch:normal;text-align:start;line-height:125%;writing-mode:lr-tb;text-anchor:start;font-family:Breamcatcher;-inkscape-font-specification:Breamcatcher"
         id="path3016"
         inkscape:connector-curvature="0" />
      <path
         d="m 346.30258,521.02191 0,0 m 9.24,-17.28 0,15.64 c -0.37335,0.45334 -0.89334,0.84 -1.56,1.16 -0.64001,0.32 -1.30668,0.48 -2,0.48 -0.90667,0 -1.72001,-0.28 -2.44,-0.84 -0.69334,-0.58666 -1.28001,-1.49333 -1.76,-2.72 -0.48,-1.25333 -0.85334,-2.86666 -1.12,-4.84 -0.24,-1.97332 -0.36,-4.35999 -0.36,-7.16 0,-2.82665 0.12,-5.23998 0.36,-7.24 0.26666,-2.02664 0.65333,-3.69331 1.16,-5 0.50666,-1.30664 1.13333,-2.26663 1.88,-2.88 0.74666,-0.6133 1.62666,-0.91997 2.64,-0.92 0.61332,3e-5 1.09332,0.0534 1.44,0.16 0.37332,0.1067 0.66666,0.2667 0.88,0.48 l 0,2.56 c -0.21334,-0.2133 -0.48001,-0.3733 -0.8,-0.48 -0.32001,-0.1333 -0.74668,-0.19997 -1.28,-0.2 -0.61334,3e-5 -1.16001,0.25336 -1.64,0.76 -0.45334,0.5067 -0.84001,1.3067 -1.16,2.4 -0.29334,1.06669 -0.52001,2.46669 -0.68,4.2 -0.16001,1.70669 -0.24001,3.76002 -0.24,6.16 -10e-6,4.21335 0.23999,7.46668 0.72,9.76 0.50666,2.26667 1.29333,3.4 2.36,3.4 0.29332,0 0.55999,-0.0267 0.8,-0.08 0.23999,-0.08 0.42666,-0.18666 0.56,-0.32 l 0,-14.48 2.24,0"
         style="font-variant:normal;font-stretch:normal;text-align:start;line-height:125%;writing-mode:lr-tb;text-anchor:start;font-family:Breamcatcher;-inkscape-font-specification:Breamcatcher"
         id="path3018"
         inkscape:connector-curvature="0" />
    </g>
  </g>
</svg>
