<?xml version="1.0" encoding="UTF-8" standalone="no"?>
<!-- Created with Inkscape (http://www.inkscape.org/) -->

<svg
   xmlns:dc="http://purl.org/dc/elements/1.1/"
   xmlns:cc="http://creativecommons.org/ns#"
   xmlns:rdf="http://www.w3.org/1999/02/22-rdf-syntax-ns#"
   xmlns:svg="http://www.w3.org/2000/svg"
   xmlns="http://www.w3.org/2000/svg"
   version="1.1"
   width="640"
   height="640"
   id="svg2">
  <defs
     id="defs4" />
  <metadata
     id="metadata7">
    <rdf:RDF>
      <cc:Work
         rdf:about="">
        <dc:format>image/svg+xml</dc:format>
        <dc:type
           rdf:resource="http://purl.org/dc/dcmitype/StillImage" />
        <dc:title></dc:title>
      </cc:Work>
    </rdf:RDF>
  </metadata>
  <g
     transform="translate(-59.999998,-192.36219)"
     id="layer1">
    <path
       d="m 740,552.36218 a 280,280 0 1 1 -560,0 280,280 0 1 1 560,0 z"
       transform="matrix(1.1428571,0,0,1.1428571,-145.71428,-118.90886)"
       id="path3976"
       style="fill:#557799;fill-opacity:1;stroke:#000000;stroke-width:0;stroke-miterlimit:4;stroke-opacity:1;stroke-dasharray:none" />
    <g
       transform="matrix(1.3933213,0,0,1.199805,60.963838,113.17732)"
       id="layer1-3">
      <path
         d="M 127.21875,0 C 106.61926,0 89.5286,14.990747 86.25,34.65625 L 81.15625,35.625 C 75.166703,25.506696 64.145109,18.71875 51.53125,18.71875 32.52473,18.71875 17.125,34.11848 17.125,53.125 c 0,16.16142 11.13593,29.70893 26.15625,33.40625 l 0,3.84375 -6.96875,0 -0.03125,-0.3125 -8.25,-3.0625 -5.78125,0 9.125,19 3.375,-0.90625 1.875,-3.0625 6.65625,0 0,42.96875 11.03125,0 -1.28125,9.5625 -26.25,5 L 21.125,156.625 0,160.65625 1.46875,172.5 22.6875,168.46875 27.59375,163.53125 56.125,157.375 58.15625,145 l 104.71875,0 0,-71.4375 -9.1875,0 C 162.9044,65.942 168.78125,54.42461 168.78125,41.53125 168.78125,18.58555 150.16445,0 127.21875,0 z M 91.125,62.09375 c 2.496677,4.378917 5.760904,8.273929 9.625,11.46875 l -21.53125,0 C 81.472977,70.513213 83.222252,67.0783 84.375,63.375 l 6.75,-1.28125 z m 59.75,68.46875 c 2.07107,0 3.75,1.67893 3.75,3.75 0,2.07107 -1.67893,3.75 -3.75,3.75 -2.07107,0 -3.75,-1.67893 -3.75,-3.75 0,-2.07107 1.67893,-3.75 3.75,-3.75 z"
         transform="translate(129.375,151.8125)"
         id="path2829"
         style="fill:#ffffff;fill-opacity:1;stroke:none" />
      <rect
         width="67.7351"
         height="14.285714"
         x="204.30278"
         y="299.36938"
         id="rect2842"
         style="fill:#ffffff;fill-opacity:0.94117647;stroke:none" />
      <path
         d="m 256,171.375 c -11.59798,0 -21,9.40202 -21,21 0,11.59798 9.40202,21 21,21 11.59798,0 21,-9.40202 21,-21 0,-11.59798 -9.40202,-21 -21,-21 z m -2.00521,6.19792 c 1.8794,0 3.40886,1.51122 3.40886,3.39062 0,1.8794 -1.52946,3.40886 -3.40886,3.40886 -1.8794,0 -3.40885,-1.52946 -3.40885,-3.40886 0,-1.8794 1.52945,-3.39062 3.40885,-3.39062 z m 10.51823,6.3802 c 1.8794,0 3.40885,1.52946 3.40885,3.40886 0,1.87939 -1.52945,3.40885 -3.40885,3.40885 -1.8794,0 -3.40885,-1.52946 -3.40885,-3.40885 0,-1.8794 1.52945,-3.40886 3.40885,-3.40886 z m -18.55729,2.67969 c 1.8794,0 3.39062,1.52946 3.39062,3.40886 0,1.87939 -1.51122,3.40885 -3.39062,3.40885 -1.8794,0 -3.40886,-1.52946 -3.40886,-3.40885 0,-1.8794 1.52946,-3.40886 3.40886,-3.40886 z m 17.31771,9.29688 c 1.8794,0 3.40885,1.51122 3.40885,3.39062 0,1.8794 -1.52945,3.40886 -3.40885,3.40886 -1.8794,0 -3.40886,-1.52946 -3.40886,-3.40886 0,-1.8794 1.52946,-3.39062 3.40886,-3.39062 z m -12.57813,2.05989 c 1.8794,0 3.40886,1.51123 3.40886,3.39063 0,1.87939 -1.52946,3.40885 -3.40886,3.40885 -1.8794,0 -3.40885,-1.52946 -3.40885,-3.40885 0,-1.8794 1.52945,-3.39063 3.40885,-3.39063 z"
         id="path3749"
         style="fill:#557799;fill-opacity:1;stroke:none" />
      <path
         d="m 181,186.375 c -9.38884,0 -17,7.61116 -17,17 0,9.38884 7.61116,17 17,17 9.38884,0 17,-7.61116 17,-17 0,-9.38884 -7.61116,-17 -17,-17 z m -1.62327,5.01736 c 1.52142,0 2.75956,1.22337 2.75956,2.74479 0,1.52142 -1.23814,2.75955 -2.75956,2.75955 -1.52141,0 -2.75954,-1.23813 -2.75954,-2.75955 0,-1.52142 1.23813,-2.74479 2.75954,-2.74479 z m 8.51476,5.16493 c 1.52142,0 2.75955,1.23813 2.75955,2.75955 0,1.52141 -1.23813,2.75955 -2.75955,2.75955 -1.52142,0 -2.75954,-1.23814 -2.75954,-2.75955 0,-1.52142 1.23812,-2.75955 2.75954,-2.75955 z m -15.02257,2.16927 c 1.52142,0 2.74479,1.23813 2.74479,2.75955 0,1.52141 -1.22337,2.75955 -2.74479,2.75955 -1.52141,0 -2.75955,-1.23814 -2.75955,-2.75955 0,-1.52142 1.23814,-2.75955 2.75955,-2.75955 z m 14.0191,7.52605 c 1.52142,0 2.75955,1.22336 2.75955,2.74478 0,1.52142 -1.23813,2.75956 -2.75955,2.75956 -1.52142,0 -2.75955,-1.23814 -2.75955,-2.75956 0,-1.52142 1.23813,-2.74478 2.75955,-2.74478 z m -10.18229,1.66753 c 1.52142,0 2.75955,1.22337 2.75955,2.74479 0,1.52141 -1.23813,2.75955 -2.75955,2.75955 -1.52142,0 -2.75955,-1.23814 -2.75955,-2.75955 0,-1.52142 1.23813,-2.74479 2.75955,-2.74479 z"
         id="path3751"
         style="fill:#557799;fill-opacity:1;stroke:none" />
      <path
         d="m 220.90625,313.65625 14.15625,227.875 6.34375,-0.0312 11.78125,-227.84375 -6.40625,0 -8.84375,171.625 -10.625,-171.625 -6.40625,0 z"
         id="path3772"
         style="font-size:medium;font-style:normal;font-variant:normal;font-weight:normal;font-stretch:normal;text-indent:0;text-align:start;text-decoration:none;line-height:normal;letter-spacing:normal;word-spacing:normal;text-transform:none;direction:ltr;block-progression:tb;writing-mode:lr-tb;text-anchor:start;color:#000000;fill:#ffffff;fill-opacity:1;stroke:none;stroke-width:6.36032486;marker:none;visibility:visible;display:inline;overflow:visible;enable-background:accumulate;font-family:Bitstream Vera Sans;-inkscape-font-specification:Bitstream Vera Sans" />
      <path
         d="M 248.21875,313.65625 307,530.09375 l 0.0312,0.15625 0.0625,0.1875 5.1875,-1.25 -0.0312,-0.15625 -43.4375,-215.375 -5.4375,0 27.65625,137.3125 -37.28125,-137.3125 -5.53125,0 z"
         id="path3774"
         style="font-size:medium;font-style:normal;font-variant:normal;font-weight:normal;font-stretch:normal;text-indent:0;text-align:start;text-decoration:none;line-height:normal;letter-spacing:normal;word-spacing:normal;text-transform:none;direction:ltr;block-progression:tb;writing-mode:lr-tb;text-anchor:start;color:#000000;fill:#ffffff;fill-opacity:1;stroke:none;stroke-width:5.35809183;marker:none;visibility:visible;display:inline;overflow:visible;enable-background:accumulate;font-family:Bitstream Vera Sans;-inkscape-font-specification:Bitstream Vera Sans" />
      <path
         d="m 207.96875,313.65625 -42.875,212.6875 -0.0312,0.15625 5.1875,1.25 0.0625,-0.1875 0.0312,-0.15625 58.09375,-213.75 -5.5625,0 -36.5625,134.625 27.125,-134.625 -5.46875,0 z"
         id="path3776"
         style="font-size:medium;font-style:normal;font-variant:normal;font-weight:normal;font-stretch:normal;text-indent:0;text-align:start;text-decoration:none;line-height:normal;letter-spacing:normal;word-spacing:normal;text-transform:none;direction:ltr;block-progression:tb;writing-mode:lr-tb;text-anchor:start;color:#000000;fill:#ffffff;fill-opacity:1;stroke:none;stroke-width:5.35809183;marker:none;visibility:visible;display:inline;overflow:visible;enable-background:accumulate;font-family:Bitstream Vera Sans;-inkscape-font-specification:Bitstream Vera Sans" />
      <rect
         width="19.488859"
         height="8.9948578"
         x="229.20436"
         y="397.00275"
         id="rect3778"
         style="fill:#ffffff;fill-opacity:1;stroke:none" />
      <rect
         width="19.488859"
         height="8.9948578"
         x="187.97794"
         y="396.2532"
         id="rect3780"
         style="fill:#ffffff;fill-opacity:1;stroke:none" />
      <rect
         width="19.488859"
         height="8.9948578"
         x="270.66217"
         y="396.2532"
         id="rect3782"
         style="fill:#ffffff;fill-opacity:1;stroke:none" />
      <path
         d="M 331.09375,220.96875 310,233.75 l -16.5,0 0,31.84375 16.5,0 21.09375,12.78125 0,-57.40625 z"
         id="rect3789"
         style="fill:#ffffff;fill-opacity:1;stroke:none" />
    </g>
  </g>
</svg>
