<?xml version="1.0" encoding="UTF-8" standalone="no"?>
<!-- Created with Inkscape (http://www.inkscape.org/) -->

<svg
   xmlns:dc="http://purl.org/dc/elements/1.1/"
   xmlns:cc="http://creativecommons.org/ns#"
   xmlns:rdf="http://www.w3.org/1999/02/22-rdf-syntax-ns#"
   xmlns:svg="http://www.w3.org/2000/svg"
   xmlns="http://www.w3.org/2000/svg"
   xmlns:sodipodi="http://sodipodi.sourceforge.net/DTD/sodipodi-0.dtd"
   xmlns:inkscape="http://www.inkscape.org/namespaces/inkscape"
   width="319.0918"
   height="58.32"
   id="svg2"
   version="1.1"
   inkscape:version="0.48.5 r10040"
   sodipodi:docname="New document 1">
  <defs
     id="defs4" />
  <sodipodi:namedview
     id="base"
     pagecolor="#ffffff"
     bordercolor="#666666"
     borderopacity="1.0"
     inkscape:pageopacity="0.0"
     inkscape:pageshadow="2"
     inkscape:zoom="1.32"
     inkscape:cx="94.950545"
     inkscape:cy="62.835542"
     inkscape:document-units="px"
     inkscape:current-layer="layer1"
     showgrid="false"
     fit-margin-top="0"
     fit-margin-left="0"
     fit-margin-right="0"
     fit-margin-bottom="0"
     inkscape:window-width="1437"
     inkscape:window-height="790"
     inkscape:window-x="379"
     inkscape:window-y="0"
     inkscape:window-maximized="0" />
  <metadata
     id="metadata7">
    <rdf:RDF>
      <cc:Work
         rdf:about="">
        <dc:format>image/svg+xml</dc:format>
        <dc:type
           rdf:resource="http://purl.org/dc/dcmitype/StillImage" />
        <dc:title></dc:title>
      </cc:Work>
    </rdf:RDF>
  </metadata>
  <g
     inkscape:label="Layer 1"
     inkscape:groupmode="layer"
     id="layer1"
     transform="translate(-145.9868,-536.83855)">
    <g
       style="font-size:40px;font-style:normal;font-variant:normal;font-weight:normal;font-stretch:normal;text-align:start;line-height:125%;letter-spacing:0px;word-spacing:0px;writing-mode:lr-tb;text-anchor:start;fill:#000000;fill-opacity:1;stroke:none;font-family:'Futura (Light)';-inkscape-font-specification:'Futura (Light)'"
       id="text2985">
      <path
         d="m 158.145,549.7171 -10.24414,0 0,10.95703 9.96094,0 0,1.80664 -9.96094,0 0,15.59571 -1.91406,0 0,-30.15625 12.1582,0 0,1.79687"
         style=""
         id="path3149" />
      <path
         d="m 165.3618,559.59991 0,2.39258 0.0781,0 c 0.80077,-1.86196 2.13541,-2.79295 4.0039,-2.79297 0.64452,2e-5 1.29557,0.14651 1.95313,0.43946 l -0.95703,1.60156 c -0.43621,-0.24087 -0.86264,-0.36131 -1.2793,-0.36133 -1.10678,2e-5 -1.94011,0.34833 -2.5,1.04492 -0.5599,0.69012 -0.91797,1.51695 -1.07422,2.48047 -0.14974,0.95705 -0.22461,2.06056 -0.22461,3.31055 l 0,0.91797 0,9.44336 -1.80664,0 0,-18.47657 1.80664,0"
         style=""
         id="path3151" />
      <path
         d="m 181.81688,560.87921 c -1.04168,2e-5 -2.00196,0.21486 -2.88086,0.64453 -0.8724,0.4232 -1.63087,1.00588 -2.27539,1.74805 -0.63803,0.7422 -1.13282,1.58855 -1.48438,2.53906 -0.35156,0.95053 -0.52734,1.92059 -0.52734,2.91016 0,1.41928 0.29948,2.75066 0.89844,3.99414 0.60546,1.24349 1.45833,2.23633 2.55859,2.97851 1.10676,0.73568 2.38281,1.10352 3.82813,1.10352 1.5104,0 2.81899,-0.37435 3.92578,-1.12305 1.10675,-0.74869 1.94009,-1.75455 2.5,-3.01757 0.56639,-1.26302 0.84959,-2.64323 0.84961,-4.14063 -2e-5,-1.05468 -0.1758,-2.04751 -0.52735,-2.97852 -0.34507,-0.93748 -0.84311,-1.75454 -1.49414,-2.45117 -0.65105,-0.6966 -1.4323,-1.23696 -2.34375,-1.62109 -0.90496,-0.39061 -1.91407,-0.58592 -3.02734,-0.58594 m 9.07226,-1.2793 0,18.47657 -1.79687,0 0,-3.32032 -0.0781,0 c -0.65105,1.13933 -1.63738,2.04428 -2.95898,2.71485 -1.31512,0.67057 -2.67579,1.00586 -4.08203,1.00586 -1.80991,0 -3.40821,-0.42969 -4.79492,-1.28906 -1.38673,-0.86589 -2.45443,-2.04427 -3.20313,-3.53516 -0.7487,-1.49739 -1.12305,-3.14127 -1.12304,-4.93164 -10e-6,-1.35416 0.21158,-2.61392 0.63476,-3.7793 0.42318,-1.16535 1.02864,-2.17772 1.81641,-3.03711 0.79426,-0.85936 1.75129,-1.52342 2.87109,-1.99219 1.11979,-0.47524 2.36002,-0.71287 3.7207,-0.71289 1.43879,2e-5 2.7897,0.31252 4.05274,0.9375 1.26951,0.62502 2.29165,1.51044 3.0664,2.65625 l 0.0781,0 0,-3.19336 1.79687,0"
         style=""
         id="path3153" />
      <path
         d="m 198.87743,559.59991 0,2.88086 0.0781,0 c 0.54036,-1.02863 1.28906,-1.83266 2.24609,-2.41211 0.96354,-0.5794 2.04101,-0.86912 3.23243,-0.86914 1.54295,2e-5 2.7604,0.30276 3.65234,0.90821 0.89191,0.60548 1.52017,1.47462 1.88477,2.60742 0.36456,1.12632 0.54685,2.52605 0.54687,4.19922 l 0,11.16211 -1.80664,0 0,-11.16211 c -1e-5,-1.28254 -0.0977,-2.35025 -0.29297,-3.20313 -0.19532,-0.85936 -0.6185,-1.54621 -1.26953,-2.06054 -0.65105,-0.51431 -1.60808,-0.77147 -2.87109,-0.77149 -1.43881,2e-5 -2.5586,0.38739 -3.35938,1.16211 -0.80079,0.76825 -1.34115,1.75132 -1.62109,2.94922 -0.27995,1.19142 -0.41993,2.51303 -0.41992,3.96484 l 0,9.1211 -1.80664,0 0,-18.47657 1.80664,0"
         style=""
         id="path3155" />
      <path
         d="m 218.4868,545.07843 0,22.35352 7.59766,-7.83204 2.32422,0 -7.76368,7.99805 10.36133,10.47852 -2.36328,0 -9.16016,-9.23828 -0.99609,1.03515 0,8.20313 -1.80664,0 0,-32.99805 1.80664,0"
         style=""
         id="path3157" />
      <path
         d="m 234.18993,547.92023 1.92382,0 -0.43945,9.59961 -1.08398,0 -0.40039,-9.59961"
         style=""
         id="path3159" />
      <path
         d="m 252.02196,562.15851 -1.5625,0.80078 c -0.29298,-0.64452 -0.72592,-1.15233 -1.29883,-1.52344 -0.57293,-0.37107 -1.22071,-0.55662 -1.94336,-0.55664 -0.80079,2e-5 -1.5267,0.28648 -2.17773,0.85938 -0.65105,0.56642 -0.97657,1.24025 -0.97657,2.02148 0,0.97007 0.31901,1.65366 0.95703,2.05078 0.63802,0.39715 1.73828,0.89194 3.30079,1.48438 1.569,0.58594 2.75064,1.25977 3.54492,2.02148 0.79426,0.75522 1.19139,1.88803 1.1914,3.39844 -1e-5,1.09375 -0.26368,2.08334 -0.79101,2.96875 -0.52736,0.88542 -1.25001,1.57227 -2.16797,2.06055 -0.91147,0.48828 -1.91082,0.73242 -2.99805,0.73242 -1.55599,0 -2.91016,-0.43946 -4.0625,-1.31836 -1.15234,-0.88542 -1.91732,-2.07357 -2.29492,-3.56445 l 1.75781,-0.55665 c 0.78125,2.50652 2.31445,3.75977 4.59961,3.75977 1.17187,0 2.1582,-0.40364 2.95899,-1.21094 0.80077,-0.80729 1.20116,-1.79036 1.20117,-2.94922 -1e-5,-1.02864 -0.306,-1.79035 -0.91797,-2.28515 -0.61199,-0.49479 -1.50717,-0.94726 -2.68555,-1.35742 -1.10026,-0.39713 -2.02149,-0.78775 -2.76367,-1.17188 -0.74219,-0.3841 -1.36719,-0.89843 -1.875,-1.54297 -0.50781,-0.65103 -0.76172,-1.45181 -0.76172,-2.40234 0,-1.35415 0.49479,-2.47069 1.48438,-3.34961 0.98958,-0.8854 2.17447,-1.32811 3.55468,-1.32813 0.61849,2e-5 1.24349,0.12698 1.875,0.38086 0.63151,0.25393 1.19791,0.60875 1.69922,1.06446 0.5078,0.44923 0.89192,0.95379 1.15235,1.51367"
         style=""
         id="path3161" />
      <path
         d="m 340.02977,559.19952 c 1.35415,2e-5 2.62368,0.24416 3.80859,0.73243 1.19139,0.48829 2.22655,1.16863 3.10547,2.04101 0.87889,0.8659 1.56574,1.88804 2.06055,3.06641 0.49477,1.17839 0.74217,2.44467 0.74219,3.79883 -2e-5,1.79688 -0.42971,3.43099 -1.28907,4.90234 -0.85939,1.47136 -2.03452,2.63021 -3.52539,3.47656 -1.48439,0.83985 -3.1185,1.25977 -4.90234,1.25977 -1.73829,0 -3.34311,-0.43295 -4.81445,-1.29883 -1.47136,-0.87239 -2.63673,-2.04427 -3.4961,-3.51563 -0.85937,-1.47134 -1.28906,-3.06639 -1.28906,-4.78515 0,-1.74478 0.42643,-3.35936 1.2793,-4.84375 0.85286,-1.48436 2.01497,-2.65949 3.48633,-3.52539 1.47134,-0.87238 3.08267,-1.30858 4.83398,-1.3086 m -0.11719,1.67969 c -1.42579,2e-5 -2.72787,0.3646 -3.90625,1.09375 -1.17839,0.72918 -2.10287,1.709 -2.77344,2.93945 -0.67057,1.23049 -1.00586,2.5521 -1.00585,3.96485 -10e-6,1.39324 0.33853,2.69857 1.01562,3.91601 0.67708,1.21746 1.60481,2.19076 2.7832,2.91993 1.17838,0.72265 2.47395,1.08398 3.88672,1.08398 1.47134,0 2.82551,-0.34831 4.0625,-1.04492 1.23697,-0.69661 2.20702,-1.65039 2.91016,-2.86133 0.70962,-1.21744 1.06443,-2.55533 1.06445,-4.01367 -2e-5,-1.49739 -0.35483,-2.85481 -1.06445,-4.07227 -0.70314,-1.22394 -1.66668,-2.18423 -2.89063,-2.88086 -1.22397,-0.69659 -2.58464,-1.0449 -4.08203,-1.04492"
         style=""
         id="path3163" />
      <path
         d="m 353.06688,559.59991 6.67969,15.23438 6.5625,-15.23438 1.83593,0 -8.4375,19.47266 -8.48632,-19.47266 1.8457,0"
         style=""
         id="path3165" />
      <path
         d="m 373.92625,559.59991 0,18.47657 -1.79687,0 0,-18.47657 1.79687,0 m -0.8789,-7.80273 c 0.46223,3e-5 0.8496,0.16279 1.16211,0.48828 0.319,0.31904 0.47851,0.70315 0.47851,1.15235 0,0.46877 -0.15951,0.85939 -0.47851,1.17187 -0.31902,0.31252 -0.70639,0.46877 -1.16211,0.46875 -0.45574,2e-5 -0.8431,-0.15948 -1.16211,-0.47852 -0.31901,-0.31898 -0.47852,-0.70635 -0.47852,-1.1621 0,-0.43618 0.15625,-0.81704 0.46875,-1.14258 0.31901,-0.33201 0.70963,-0.49802 1.17188,-0.49805"
         style=""
         id="path3167" />
      <path
         d="m 396.86571,568.99445 -16.04492,0 c -10e-6,1.5625 0.32226,2.9362 0.96679,4.12109 0.64453,1.1849 1.52994,2.09636 2.65625,2.73437 1.1263,0.63152 2.38606,0.94727 3.7793,0.94727 1.40624,0 2.67577,-0.38086 3.80859,-1.14258 1.13931,-0.76822 2.04426,-1.7871 2.71485,-3.05664 l 1.51367,0.87891 c -0.83986,1.60156 -1.97593,2.83529 -3.4082,3.70117 -1.4258,0.86588 -3.04689,1.29883 -4.86329,1.29883 -1.77084,0 -3.33985,-0.4362 -4.70703,-1.3086 -1.36068,-0.87239 -2.41211,-2.04752 -3.15429,-3.52539 -0.73568,-1.47786 -1.10352,-3.09244 -1.10352,-4.84375 0,-1.72525 0.37435,-3.3203 1.12305,-4.78515 0.74869,-1.47134 1.80338,-2.63996 3.16406,-3.50586 1.36718,-0.87238 2.92642,-1.30858 4.67773,-1.3086 1.80338,2e-5 3.3789,0.43948 4.72657,1.31836 1.34764,0.87893 2.37628,2.06708 3.08593,3.56446 0.70962,1.49089 1.06444,3.12826 1.06446,4.91211 m -16.04492,-1.67969 14.24804,0 c -0.14324,-1.1328 -0.53712,-2.194 -1.18164,-3.1836 -0.64454,-0.98956 -1.47788,-1.77732 -2.5,-2.36328 -1.01564,-0.59243 -2.13543,-0.88865 -3.35937,-0.88867 -1.22397,2e-5 -2.3698,0.29299 -3.4375,0.87891 -1.06121,0.57944 -1.93035,1.36394 -2.60743,2.35351 -0.67057,0.9896 -1.05794,2.05731 -1.1621,3.20313"
         style=""
         id="path3169" />
      <path
         d="m 415.71336,547.92023 0,28.35937 7.68555,0 0,1.79688 -9.59961,0 0,-30.15625 1.91406,0"
         style=""
         id="path3171" />
      <path
         d="m 434.48289,559.19952 c 1.35416,2e-5 2.62369,0.24416 3.8086,0.73243 1.19139,0.48829 2.22654,1.16863 3.10547,2.04101 0.87888,0.8659 1.56573,1.88804 2.06054,3.06641 0.49478,1.17839 0.74217,2.44467 0.74219,3.79883 -2e-5,1.79688 -0.42971,3.43099 -1.28906,4.90234 -0.85939,1.47136 -2.03452,2.63021 -3.52539,3.47656 -1.48439,0.83985 -3.1185,1.25977 -4.90235,1.25977 -1.73829,0 -3.3431,-0.43295 -4.81445,-1.29883 -1.47136,-0.87239 -2.63672,-2.04427 -3.49609,-3.51563 -0.85938,-1.47134 -1.28907,-3.06639 -1.28906,-4.78515 -10e-6,-1.74478 0.42643,-3.35936 1.27929,-4.84375 0.85286,-1.48436 2.01497,-2.65949 3.48633,-3.52539 1.47135,-0.87238 3.08267,-1.30858 4.83398,-1.3086 m -0.11718,1.67969 c -1.42579,2e-5 -2.72788,0.3646 -3.90625,1.09375 -1.17839,0.72918 -2.10287,1.709 -2.77344,2.93945 -0.67058,1.23049 -1.00586,2.5521 -1.00586,3.96485 0,1.39324 0.33854,2.69857 1.01563,3.91601 0.67707,1.21746 1.60481,2.19076 2.7832,2.91993 1.17838,0.72265 2.47395,1.08398 3.88672,1.08398 1.47134,0 2.8255,-0.34831 4.0625,-1.04492 1.23696,-0.69661 2.20701,-1.65039 2.91015,-2.86133 0.70962,-1.21744 1.06444,-2.55533 1.06446,-4.01367 -2e-5,-1.49739 -0.35484,-2.85481 -1.06446,-4.07227 -0.70314,-1.22394 -1.66668,-2.18423 -2.89062,-2.88086 -1.22397,-0.69659 -2.58465,-1.0449 -4.08203,-1.04492"
         style=""
         id="path3173" />
      <path
         d="m 455.99657,560.87921 c -1.03517,2e-5 -1.9922,0.21486 -2.8711,0.64453 -0.8724,0.4232 -1.63086,1.00588 -2.27539,1.74805 -0.63802,0.7422 -1.13281,1.58855 -1.48437,2.53906 -0.35157,0.95053 -0.52735,1.92059 -0.52735,2.91016 0,1.41928 0.29948,2.75066 0.89844,3.99414 0.60547,1.24349 1.45833,2.23633 2.55859,2.97851 1.10677,0.73568 2.38281,1.10352 3.82813,1.10352 1.5104,0 2.819,-0.37435 3.92578,-1.12305 1.10676,-0.74869 1.94009,-1.75455 2.5,-3.01757 0.56639,-1.26302 0.84959,-2.64323 0.84961,-4.14063 -2e-5,-1.41275 -0.30601,-2.70181 -0.91797,-3.86719 -0.61199,-1.17186 -1.48439,-2.09308 -2.61719,-2.76367 -1.12631,-0.67056 -2.41537,-1.00584 -3.86718,-1.00586 m 9.08203,-1.2793 0,17.59766 c -2e-5,1.77734 -0.1107,3.25521 -0.33203,4.43359 -0.21487,1.17839 -0.71617,2.31445 -1.50391,3.40821 -0.84637,1.15233 -1.91408,2.03124 -3.20312,2.63672 -1.28908,0.61197 -2.6758,0.91795 -4.16016,0.91797 -1.62761,-2e-5 -3.1185,-0.30926 -4.47266,-0.92774 -1.35417,-0.6185 -2.44466,-1.5267 -3.27148,-2.72461 -0.82032,-1.19792 -1.2793,-2.62045 -1.37695,-4.26758 l 1.79687,0 c 0.0651,1.24349 0.42968,2.33724 1.09375,3.28125 0.66406,0.94401 1.52994,1.67317 2.59766,2.1875 1.0677,0.51432 2.22655,0.77148 3.47656,0.77149 1.21093,-10e-6 2.34048,-0.22788 3.38867,-0.6836 1.04816,-0.45573 1.89126,-1.14584 2.5293,-2.07031 0.66404,-0.97657 1.1035,-2.01823 1.31836,-3.125 0.21482,-1.10677 0.32225,-2.39909 0.32226,-3.87695 l 0,-2.28516 -0.0781,0 c -0.82033,1.10026 -1.87827,1.97591 -3.17383,2.62696 -1.29559,0.65104 -2.63999,0.97656 -4.0332,0.97656 -1.73829,0 -3.29103,-0.44271 -4.65821,-1.32813 -1.36068,-0.88541 -2.41862,-2.07031 -3.17382,-3.55468 -0.7487,-1.49088 -1.12305,-3.08919 -1.12305,-4.79493 0,-1.75129 0.39062,-3.35936 1.17187,-4.82422 0.78125,-1.47133 1.87174,-2.63344 3.27149,-3.48632 1.40624,-0.85936 2.99153,-1.28905 4.75586,-1.28907 2.85155,2e-5 5.17251,1.19794 6.96289,3.59375 l 0.0781,0 0,-3.19336 1.79688,0"
         style=""
         id="path3175" />
    </g>
    <g
       transform="matrix(0.091125,0,0,0.091125,264.61493,519.30954)"
       id="layer1-7">
      <path
         inkscape:connector-curvature="0"
         d="m 740,552.36218 a 280,280 0 1 1 -560,0 280,280 0 1 1 560,0 z"
         transform="matrix(1.1428571,0,0,1.1428571,-145.71428,-118.90886)"
         id="path3976"
         style="fill:#557799;fill-opacity:1;stroke:#000000;stroke-width:0;stroke-miterlimit:4;stroke-opacity:1;stroke-dasharray:none" />
      <g
         transform="matrix(13.207692,0,0,16.792768,241.05407,279.51144)"
         id="g4539">
        <g
           id="g4503" />
        <g
           id="g4505" />
        <g
           id="g4507" />
        <g
           id="g4509" />
        <g
           id="g4511" />
        <g
           id="g4513" />
        <g
           id="g4515" />
        <g
           id="g4517" />
        <g
           id="g4519" />
        <g
           id="g4521" />
        <g
           id="g4523" />
        <g
           id="g4525" />
        <g
           id="g4527" />
        <g
           id="g4529" />
        <g
           id="g4531" />
      </g>
      <g
         transform="matrix(8.1060977,0,0,6.9791205,241.84962,289.41354)"
         id="g4801" />
      <g
         transform="matrix(8.1060977,0,0,6.9791205,241.84962,289.41354)"
         id="g4803" />
      <g
         transform="matrix(8.1060977,0,0,6.9791205,241.84962,289.41354)"
         id="g4805" />
      <g
         transform="matrix(8.1060977,0,0,6.9791205,241.84962,289.41354)"
         id="g4807" />
      <g
         transform="matrix(8.1060977,0,0,6.9791205,241.84962,289.41354)"
         id="g4809" />
      <g
         transform="matrix(8.1060977,0,0,6.9791205,241.84962,289.41354)"
         id="g4811" />
      <g
         transform="matrix(8.1060977,0,0,6.9791205,241.84962,289.41354)"
         id="g4813" />
      <g
         transform="matrix(8.1060977,0,0,6.9791205,241.84962,289.41354)"
         id="g4815" />
      <g
         transform="matrix(8.1060977,0,0,6.9791205,241.84962,289.41354)"
         id="g4817" />
      <g
         transform="matrix(8.1060977,0,0,6.9791205,241.84962,289.41354)"
         id="g4819" />
      <g
         transform="matrix(8.1060977,0,0,6.9791205,241.84962,289.41354)"
         id="g4821" />
      <g
         transform="matrix(8.1060977,0,0,6.9791205,241.84962,289.41354)"
         id="g4823" />
      <g
         transform="matrix(8.1060977,0,0,6.9791205,241.84962,289.41354)"
         id="g4825" />
      <g
         transform="matrix(8.1060977,0,0,6.9791205,241.84962,289.41354)"
         id="g4827" />
      <g
         transform="matrix(8.1060977,0,0,6.9791205,241.84962,289.41354)"
         id="g4829" />
      <g
         transform="scale(0.98079958,1.0195763)"
         style="font-size:476.70721436px;font-style:normal;font-variant:normal;font-weight:500;font-stretch:normal;text-align:start;line-height:125%;letter-spacing:0px;word-spacing:0px;writing-mode:lr-tb;text-anchor:start;fill:#ffffff;fill-opacity:1;stroke:none;font-family:Futura;-inkscape-font-specification:Futura Medium"
         id="text5019">
        <path
           inkscape:connector-curvature="0"
           d="m 190.05241,671.96783 75.64934,-386.39354 123.36661,279.32063 127.78919,-279.32063 67.96802,386.39354 -55.63136,0 L 494.5119,455.02881 388.13729,688.49431 284.78866,454.79604 246.1493,671.96783 l -56.09689,0"
           id="path4008" />
      </g>
    </g>
  </g>
</svg>
