<?xml version="1.0" encoding="UTF-8" standalone="no"?>
<!-- Created with Inkscape (http://www.inkscape.org/) -->

<svg
   xmlns:dc="http://purl.org/dc/elements/1.1/"
   xmlns:cc="http://creativecommons.org/ns#"
   xmlns:rdf="http://www.w3.org/1999/02/22-rdf-syntax-ns#"
   xmlns:svg="http://www.w3.org/2000/svg"
   xmlns="http://www.w3.org/2000/svg"
   xmlns:sodipodi="http://sodipodi.sourceforge.net/DTD/sodipodi-0.dtd"
   xmlns:inkscape="http://www.inkscape.org/namespaces/inkscape"
   width="153.7612mm"
   height="11.437092mm"
   viewBox="0 0 544.82315 40.525128"
   id="svg2"
   version="1.1"
   inkscape:version="0.91 r13725"
   sodipodi:docname="logo.svg">
  <defs
     id="defs4" />
  <sodipodi:namedview
     id="base"
     pagecolor="#ffffff"
     bordercolor="#666666"
     borderopacity="1.0"
     inkscape:pageopacity="0.0"
     inkscape:pageshadow="2"
     inkscape:zoom="0.35"
     inkscape:cx="-395"
     inkscape:cy="-454.852"
     inkscape:document-units="px"
     inkscape:current-layer="layer1"
     showgrid="false"
     fit-margin-top="0"
     fit-margin-left="0"
     fit-margin-right="0"
     fit-margin-bottom="0"
     inkscape:window-width="1916"
     inkscape:window-height="1155"
     inkscape:window-x="4"
     inkscape:window-y="1"
     inkscape:window-maximized="1" />
  <metadata
     id="metadata7">
    <rdf:RDF>
      <cc:Work
         rdf:about="">
        <dc:format>image/svg+xml</dc:format>
        <dc:type
           rdf:resource="http://purl.org/dc/dcmitype/StillImage" />
        <dc:title></dc:title>
      </cc:Work>
    </rdf:RDF>
  </metadata>
  <g
     inkscape:label="Layer 1"
     inkscape:groupmode="layer"
     id="layer1"
     transform="translate(-97.14286,-36.985074)">
    <g
       id="text3336">
      <path
         d="m 97.14286,77.225074 7.24,0.28 0,-19.72 19.72,-0.28 0,-6.12 -19.72,0.28 0.28,-7.48 23.88,0 0.28,-6.68 -31.68,0 0,39.72 z"
         id="path3341"
         inkscape:connector-curvature="0" />
      <path
         d="m 148.99099,55.585074 c 2.52,1.52 4.6,3.2 5.12,4.92 0,0 1.56,5.12 3.24,17 l -5.16,-0.52 c -0.76,-11.16 -3.24,-14.6 -3.24,-14.6 -1.24,-1.76 -5.24,-4.08 -8.84,-5.96 0,0 -3.28,0.04 -5.72,-0.24 l 0.56,21.04 -6.2,-0.52 -0.28,-38.32 c 29.48,-4.52 29.12,9.72 29.12,9.72 -0.08,4.32 -4,6.44 -8.6,7.48 z m -14.04,-4.24 c 16.72,3.24 16.44,-4.04 16.44,-4.04 0,0 -0.28,-7.28 -16.16,-3.52 l -0.28,7.56 z"
         id="path3343"
         inkscape:connector-curvature="0" />
      <path
         d="m 178.87349,37.505074 19.28,39.44 -5.96,0.56 -7.56,-14.6 -13.68,-1.6 -4.72,16.2 -6.2,0 11.36,-39.2 7.48,-0.8 z m -6.48,19.08 10.8,1.48 -6.84,-13.36 -3.96,11.88 z"
         id="path3345"
         inkscape:connector-curvature="0" />
      <path
         d="m 199.33036,77.505074 6.8,-0.28 -0.8,-26.12 14.4,25.84 9.52,0.28 -1.64,-39.44 -4.6,-0.28 0.28,34 -17.72,-33.72 -5.96,0.28 -0.28,39.44 z"
         id="path3347"
         inkscape:connector-curvature="0" />
      <path
         d="m 239.90286,38.345074 -7.48,-0.84 -0.28,39.44 6.4,0.28 0.84,-14.44 5.8,-5.28 6.12,20 6.12,0 -7.76,-23.88 11.08,-12.52 -5.56,-3.04 -15.8,16.68 0.52,-16.4 z"
         id="path3349"
         inkscape:connector-curvature="0" />
      <path
         d="m 264.37349,36.985074 0,8.48 3.2,-0.6 -0.2,-7.28 -3,-0.6 z"
         id="path3351"
         inkscape:connector-curvature="0" />
      <path
         d="m 302.62224,49.905074 c -3.68,-6.44 -10.72,-6.68 -10.72,-6.68 -7.04,-0.28 -12.36,-1.56 -12.08,3.6 0.28,5.16 13.2,6.44 20.8,8.24 7.6,1.8 8.24,9.32 8.24,11.76 0,2.44 0,10.68 -17.24,10.68 0,0 -17.28,0 -20.88,-14.04 l 6.96,-0.28 c 3.6,8.84 12.8,8.84 12.8,8.84 3.32,0 10.56,0 10.56,-5.52 0,-8.24 -8.6,-6.8 -17.88,-9.36 -9.28,-2.6 -11.56,-6.36 -12.68,-10.84 -0.32,-1.44 4.68,-9.36 21.12,-8.76 0,0 18.84,0.68 17.72,12.36 l -6.72,0 z"
         id="path3353"
         inkscape:connector-curvature="0" />
      <path
         d="m 327.68974,76.945074 6.32,-0.28 -0.28,-24.64 11.48,24.92 5.76,0 10.4,-23.84 2.2,24.12 4.4,0.28 -1.36,-38.36 -4.4,-0.28 -13.68,30.44 -15.08,-31.52 -5.48,-0.28 -0.28,39.44 z"
         id="path3355"
         inkscape:connector-curvature="0" />
      <path
         d="m 394.62036,37.505074 c 20.04,0.36 24.04,12.32 24.04,20.56 0,8.48 -6.68,19.72 -28.72,19.44 -12.68,-0.16 -19.36,-11.76 -19.36,-18.92 0,-4.92 9.36,-21.36 24.04,-21.08 z m 15.68,26.92 c 4.2,-12.36 -4,-18.12 -11.08,-19.64 -6.84,-1.48 -17.56,-1.36 -21.44,9.84 -2.88,8.2 9.16,16.4 13.28,17.28 5.96,1.28 16.84,-0.4 19.24,-7.48 z"
         id="path3357"
         inkscape:connector-curvature="0" />
      <path
         d="m 420.81474,37.505074 15.12,40 6.4,0 18.48,-39.72 -7,0 -14.24,33.84 -12.88,-34.12 -5.88,0 z"
         id="path3359"
         inkscape:connector-curvature="0" />
      <path
         d="m 461.90849,37.785074 8,-0.28 0.56,40 -8,-0.56 -0.56,-39.16 z"
         id="path3361"
         inkscape:connector-curvature="0" />
      <path
         d="m 473.39286,37.505074 33.36,0.56 1.12,6.08 -26.2,0 0,12.4 21.8,0.28 -0.28,5.52 -20.44,0.8 0,7.2 24.84,0.28 -0.56,6.88 -33.64,0 0,-40 z"
         id="path3363"
         inkscape:connector-curvature="0" />
      <path
         d="m 525.39161,37.505074 6.68,0.28 0.28,32.48 20.52,0 0,7.24 -27.76,-0.56 0.28,-39.44 z"
         id="path3365"
         inkscape:connector-curvature="0" />
      <path
         d="m 576.65161,37.505074 c 20.04,0.36 24.04,12.32 24.04,20.56 0,8.48 -6.68,19.72 -28.72,19.44 -12.68,-0.16 -19.36,-11.76 -19.36,-18.92 0,-4.92 9.36,-21.36 24.04,-21.08 z m 15.68,26.92 c 4.2,-12.36 -4,-18.12 -11.08,-19.64 -6.84,-1.48 -17.56,-1.36 -21.44,9.84 -2.88,8.2 9.16,16.4 13.28,17.28 5.96,1.28 16.84,-0.4 19.24,-7.48 z"
         id="path3367"
         inkscape:connector-curvature="0" />
      <path
         d="m 640.84599,45.905074 c -4.2,-7.84 -18.16,-8.4 -18.16,-8.4 -8.92,-0.32 -19.56,4.48 -19.84,18.72 -0.28,14.28 7.56,21.76 19.28,21.24 0,0 12.6,-0.56 15.36,-7.24 l -0.28,6.4 2.24,0.28 2.52,-13.4 -11.16,-0.28 0,3.64 5.56,-0.28 c -2.2,4.2 -15.08,4.2 -15.08,4.2 -8.36,0 -11.72,-9.8 -11.72,-14.28 0,-4.44 2.8,-11.44 13.96,-12 0,0 11.2,-0.56 12.84,5.6 l 4.48,-4.2 z"
         id="path3369"
         inkscape:connector-curvature="0" />
    </g>
  </g>
</svg>
