<?xml version="1.0" encoding="UTF-8" standalone="no"?>
<!-- Created with Inkscape (http://www.inkscape.org/) -->

<svg
   xmlns:dc="http://purl.org/dc/elements/1.1/"
   xmlns:cc="http://creativecommons.org/ns#"
   xmlns:rdf="http://www.w3.org/1999/02/22-rdf-syntax-ns#"
   xmlns:svg="http://www.w3.org/2000/svg"
   xmlns="http://www.w3.org/2000/svg"
   xmlns:sodipodi="http://sodipodi.sourceforge.net/DTD/sodipodi-0.dtd"
   xmlns:inkscape="http://www.inkscape.org/namespaces/inkscape"
   version="1.1"
   width="640"
   height="640"
   id="svg2"
   inkscape:version="0.48.5 r10040"
   sodipodi:docname="logo-5.svg">
  <sodipodi:namedview
     pagecolor="#ffffff"
     bordercolor="#666666"
     borderopacity="1"
     objecttolerance="10"
     gridtolerance="10"
     guidetolerance="10"
     inkscape:pageopacity="0"
     inkscape:pageshadow="2"
     inkscape:window-width="1625"
     inkscape:window-height="859"
     id="namedview3023"
     showgrid="true"
     inkscape:zoom="0.91875"
     inkscape:cx="130.61224"
     inkscape:cy="320"
     inkscape:window-x="0"
     inkscape:window-y="0"
     inkscape:window-maximized="0"
     inkscape:current-layer="svg2" />
  <defs
     id="defs4" />
  <metadata
     id="metadata7">
    <rdf:RDF>
      <cc:Work
         rdf:about="">
        <dc:format>image/svg+xml</dc:format>
        <dc:type
           rdf:resource="http://purl.org/dc/dcmitype/StillImage" />
        <dc:title />
      </cc:Work>
    </rdf:RDF>
  </metadata>
  <g
     transform="translate(-59.999998,-192.36219)"
     id="layer1">
    <path
       d="m 740,552.36218 a 280,280 0 1 1 -560,0 280,280 0 1 1 560,0 z"
       transform="matrix(1.1428571,0,0,1.1428571,-145.71428,-118.90886)"
       id="path3976"
       style="fill:#557799;fill-opacity:1;stroke:#000000;stroke-width:0;stroke-miterlimit:4;stroke-opacity:1;stroke-dasharray:none" />
    <g
       transform="matrix(13.207692,0,0,16.792768,241.05407,279.51144)"
       id="g4539">
      <g
         id="g4503" />
      <g
         id="g4505" />
      <g
         id="g4507" />
      <g
         id="g4509" />
      <g
         id="g4511" />
      <g
         id="g4513" />
      <g
         id="g4515" />
      <g
         id="g4517" />
      <g
         id="g4519" />
      <g
         id="g4521" />
      <g
         id="g4523" />
      <g
         id="g4525" />
      <g
         id="g4527" />
      <g
         id="g4529" />
      <g
         id="g4531" />
    </g>
    <g
       transform="matrix(8.1060977,0,0,6.9791205,241.84962,289.41354)"
       id="g4801" />
    <g
       transform="matrix(8.1060977,0,0,6.9791205,241.84962,289.41354)"
       id="g4803" />
    <g
       transform="matrix(8.1060977,0,0,6.9791205,241.84962,289.41354)"
       id="g4805" />
    <g
       transform="matrix(8.1060977,0,0,6.9791205,241.84962,289.41354)"
       id="g4807" />
    <g
       transform="matrix(8.1060977,0,0,6.9791205,241.84962,289.41354)"
       id="g4809" />
    <g
       transform="matrix(8.1060977,0,0,6.9791205,241.84962,289.41354)"
       id="g4811" />
    <g
       transform="matrix(8.1060977,0,0,6.9791205,241.84962,289.41354)"
       id="g4813" />
    <g
       transform="matrix(8.1060977,0,0,6.9791205,241.84962,289.41354)"
       id="g4815" />
    <g
       transform="matrix(8.1060977,0,0,6.9791205,241.84962,289.41354)"
       id="g4817" />
    <g
       transform="matrix(8.1060977,0,0,6.9791205,241.84962,289.41354)"
       id="g4819" />
    <g
       transform="matrix(8.1060977,0,0,6.9791205,241.84962,289.41354)"
       id="g4821" />
    <g
       transform="matrix(8.1060977,0,0,6.9791205,241.84962,289.41354)"
       id="g4823" />
    <g
       transform="matrix(8.1060977,0,0,6.9791205,241.84962,289.41354)"
       id="g4825" />
    <g
       transform="matrix(8.1060977,0,0,6.9791205,241.84962,289.41354)"
       id="g4827" />
    <g
       transform="matrix(8.1060977,0,0,6.9791205,241.84962,289.41354)"
       id="g4829" />
  </g>
  <text
     xml:space="preserve"
     style="font-size:432px;font-style:normal;font-variant:normal;font-weight:800;font-stretch:normal;text-align:start;line-height:125%;letter-spacing:0px;word-spacing:0px;writing-mode:lr-tb;text-anchor:start;fill:#ffffff;fill-opacity:1;stroke:none;font-family:Avenir;-inkscape-font-specification:Avenir Ultra-Bold"
     x="116.096"
     y="472.92801"
     id="text3025"
     sodipodi:linespacing="125%"><tspan
       sodipodi:role="line"
       id="tspan3027"
       x="116.096"
       y="472.92801">M</tspan></text>
</svg>
