<?xml version="1.0" encoding="UTF-8" standalone="no"?>
<!-- Created with Inkscape (http://www.inkscape.org/) -->

<svg
   xmlns:dc="http://purl.org/dc/elements/1.1/"
   xmlns:cc="http://creativecommons.org/ns#"
   xmlns:rdf="http://www.w3.org/1999/02/22-rdf-syntax-ns#"
   xmlns:svg="http://www.w3.org/2000/svg"
   xmlns="http://www.w3.org/2000/svg"
   xmlns:sodipodi="http://sodipodi.sourceforge.net/DTD/sodipodi-0.dtd"
   xmlns:inkscape="http://www.inkscape.org/namespaces/inkscape"
   version="1.1"
   width="721"
   height="756"
   id="svg2"
   inkscape:version="0.48.5 r10040"
   sodipodi:docname="logo-12.svg">
  <sodipodi:namedview
     pagecolor="#ffffff"
     bordercolor="#666666"
     borderopacity="1"
     objecttolerance="10"
     gridtolerance="10"
     guidetolerance="10"
     inkscape:pageopacity="0"
     inkscape:pageshadow="2"
     inkscape:window-width="1116"
     inkscape:window-height="690"
     id="namedview4005"
     showgrid="false"
     inkscape:zoom="0.36875"
     inkscape:cx="317.78814"
     inkscape:cy="320.51463"
     inkscape:window-x="608"
     inkscape:window-y="0"
     inkscape:window-maximized="0"
     inkscape:current-layer="svg2"
     fit-margin-top="0"
     fit-margin-left="0"
     fit-margin-right="0"
     fit-margin-bottom="0" />
  <defs
     id="defs4" />
  <metadata
     id="metadata7">
    <rdf:RDF>
      <cc:Work
         rdf:about="">
        <dc:format>image/svg+xml</dc:format>
        <dc:type
           rdf:resource="http://purl.org/dc/dcmitype/StillImage" />
        <dc:title></dc:title>
      </cc:Work>
    </rdf:RDF>
  </metadata>
  <g
     transform="translate(-21.5,-132.37684)"
     id="layer1">
    <path
       d="m 701.99999,510.37684 a 319.99999,319.99999 0 0 1 -639.99998,0 319.99999,319.99999 0 1 1 639.99998,0 z"
       id="path3976"
       style="fill:#557799;fill-opacity:1;stroke:#ffffff;stroke-width:10;stroke-linecap:round;stroke-linejoin:round;stroke-miterlimit:4;stroke-opacity:1;stroke-dasharray:none"
       inkscape:connector-curvature="0" />
    <g
       transform="matrix(13.207692,0,0,16.792768,241.05407,279.51144)"
       id="g4539">
      <g
         id="g4503" />
      <g
         id="g4505" />
      <g
         id="g4507" />
      <g
         id="g4509" />
      <g
         id="g4511" />
      <g
         id="g4513" />
      <g
         id="g4515" />
      <g
         id="g4517" />
      <g
         id="g4519" />
      <g
         id="g4521" />
      <g
         id="g4523" />
      <g
         id="g4525" />
      <g
         id="g4527" />
      <g
         id="g4529" />
      <g
         id="g4531" />
    </g>
    <g
       transform="matrix(8.1060977,0,0,6.9791205,241.84962,289.41354)"
       id="g4801" />
    <g
       transform="matrix(8.1060977,0,0,6.9791205,241.84962,289.41354)"
       id="g4803" />
    <g
       transform="matrix(8.1060977,0,0,6.9791205,241.84962,289.41354)"
       id="g4805" />
    <g
       transform="matrix(8.1060977,0,0,6.9791205,241.84962,289.41354)"
       id="g4807" />
    <g
       transform="matrix(8.1060977,0,0,6.9791205,241.84962,289.41354)"
       id="g4809" />
    <g
       transform="matrix(8.1060977,0,0,6.9791205,241.84962,289.41354)"
       id="g4811" />
    <g
       transform="matrix(8.1060977,0,0,6.9791205,241.84962,289.41354)"
       id="g4813" />
    <g
       transform="matrix(8.1060977,0,0,6.9791205,241.84962,289.41354)"
       id="g4815" />
    <g
       transform="matrix(8.1060977,0,0,6.9791205,241.84962,289.41354)"
       id="g4817" />
    <g
       transform="matrix(8.1060977,0,0,6.9791205,241.84962,289.41354)"
       id="g4819" />
    <g
       transform="matrix(8.1060977,0,0,6.9791205,241.84962,289.41354)"
       id="g4821" />
    <g
       transform="matrix(8.1060977,0,0,6.9791205,241.84962,289.41354)"
       id="g4823" />
    <g
       transform="matrix(8.1060977,0,0,6.9791205,241.84962,289.41354)"
       id="g4825" />
    <g
       transform="matrix(8.1060977,0,0,6.9791205,241.84962,289.41354)"
       id="g4827" />
    <g
       transform="matrix(8.1060977,0,0,6.9791205,241.84962,289.41354)"
       id="g4829" />
    <g
       transform="scale(0.98079958,1.0195763)"
       style="font-size:476.70721436px;font-style:normal;font-variant:normal;font-weight:500;font-stretch:normal;text-align:start;line-height:125%;letter-spacing:0px;word-spacing:0px;writing-mode:lr-tb;text-anchor:start;fill:#ffffff;fill-opacity:1;stroke:none;font-family:Futura;-inkscape-font-specification:Futura Medium"
       id="text5019">
      <path
         d="m 190.05241,671.96783 75.64934,-386.39354 123.36661,279.32063 127.78919,-279.32063 67.96802,386.39354 -55.63136,0 L 494.5119,455.02881 388.13729,688.49431 284.78866,454.79604 246.1493,671.96783 l -56.09689,0"
         id="path4008"
         inkscape:connector-curvature="0" />
    </g>
  </g>
</svg>
